<?xml version="1.0" encoding="UTF-8"?>
<svg xmlns="http://www.w3.org/2000/svg" width="1380" height="650" viewBox="0 0 1380 650" role="img" aria-labelledby="title desc">
<title id="title">Unit-spectrum local passivity deficits</title>
<desc id="desc">Reproducible research figure generated from committed JSON.</desc>
<metadata>{&quot;generator&quot;: &quot;scripts/make_figures.py&quot;, &quot;sources&quot;: [{&quot;path&quot;: &quot;scripts/make_figures.py&quot;, &quot;sha256&quot;: &quot;fd60573f91260736525e45b035f7582154d2aa3fa14601e1a94a60d5e169076f&quot;}, {&quot;path&quot;: &quot;results/summaries/deficit_audit.json&quot;, &quot;sha256&quot;: &quot;cc5ab80928a66fb12f9a68448ef0438a393959f88fd455a66db81381d077018a&quot;}]}</metadata>
<rect width="1380" height="650" fill="#FFFFFF"/>
<text x="85.0" y="42.0" fill="#182230" font-size="25" font-weight="650" text-anchor="start" font-family="Inter, ui-sans-serif, system-ui, sans-serif">Unit-spectrum local passivity deficits</text>
<text x="85.0" y="70.0" fill="#667085" font-size="14" font-weight="400" text-anchor="start" font-family="Inter, ui-sans-serif, system-ui, sans-serif">Exact-current normalization, fixed scale, and the normalization-clean subset; 2×2 angular grid</text>
<line x1="85.00" y1="108.00" x2="113.00" y2="108.00" stroke="#2F6BFF" stroke-width="2"/>
<circle cx="99.00" cy="108.00" r="3.5" fill="#2F6BFF" stroke="#2F6BFF" stroke-width="1.8"/>
<text x="121.0" y="113.0" fill="#667085" font-size="12" font-weight="400" text-anchor="start" font-family="Inter, ui-sans-serif, system-ui, sans-serif">Exact current norm</text>
<line x1="335.00" y1="108.00" x2="363.00" y2="108.00" stroke="#E46C2A" stroke-width="2"/>
<circle cx="349.00" cy="108.00" r="3.5" fill="#FFFFFF" stroke="#E46C2A" stroke-width="1.8"/>
<text x="371.0" y="113.0" fill="#667085" font-size="12" font-weight="400" text-anchor="start" font-family="Inter, ui-sans-serif, system-ui, sans-serif">Fixed scale</text>
<line x1="585.00" y1="108.00" x2="613.00" y2="108.00" stroke="#B58105" stroke-width="2" stroke-dasharray="5 4"/>
<circle cx="599.00" cy="108.00" r="3.5" fill="#B58105" stroke="#B58105" stroke-width="1.8"/>
<text x="621.0" y="113.0" fill="#667085" font-size="12" font-weight="400" text-anchor="start" font-family="Inter, ui-sans-serif, system-ui, sans-serif">Current norm where fixed-scale Jacobian ≥ 0</text>
<line x1="85.00" y1="555.00" x2="1350.00" y2="555.00" stroke="#DDE3EA" stroke-width="0.8"/>
<text x="75.0" y="559.0" fill="#667085" font-size="11" font-weight="400" text-anchor="end" font-family="Inter, ui-sans-serif, system-ui, sans-serif">10^-3</text>
<line x1="85.00" y1="497.14" x2="1350.00" y2="497.14" stroke="#DDE3EA" stroke-width="0.8"/>
<text x="75.0" y="501.1" fill="#667085" font-size="11" font-weight="400" text-anchor="end" font-family="Inter, ui-sans-serif, system-ui, sans-serif">10^-2</text>
<line x1="85.00" y1="439.29" x2="1350.00" y2="439.29" stroke="#DDE3EA" stroke-width="0.8"/>
<text x="75.0" y="443.3" fill="#667085" font-size="11" font-weight="400" text-anchor="end" font-family="Inter, ui-sans-serif, system-ui, sans-serif">10^-1</text>
<line x1="85.00" y1="381.43" x2="1350.00" y2="381.43" stroke="#DDE3EA" stroke-width="0.8"/>
<text x="75.0" y="385.4" fill="#667085" font-size="11" font-weight="400" text-anchor="end" font-family="Inter, ui-sans-serif, system-ui, sans-serif">10^0</text>
<line x1="85.00" y1="323.57" x2="1350.00" y2="323.57" stroke="#DDE3EA" stroke-width="0.8"/>
<text x="75.0" y="327.6" fill="#667085" font-size="11" font-weight="400" text-anchor="end" font-family="Inter, ui-sans-serif, system-ui, sans-serif">10^1</text>
<line x1="85.00" y1="265.71" x2="1350.00" y2="265.71" stroke="#DDE3EA" stroke-width="0.8"/>
<text x="75.0" y="269.7" fill="#667085" font-size="11" font-weight="400" text-anchor="end" font-family="Inter, ui-sans-serif, system-ui, sans-serif">10^2</text>
<line x1="85.00" y1="207.86" x2="1350.00" y2="207.86" stroke="#DDE3EA" stroke-width="0.8"/>
<text x="75.0" y="211.9" fill="#667085" font-size="11" font-weight="400" text-anchor="end" font-family="Inter, ui-sans-serif, system-ui, sans-serif">10^3</text>
<line x1="85.00" y1="150.00" x2="1350.00" y2="150.00" stroke="#DDE3EA" stroke-width="0.8"/>
<text x="75.0" y="154.0" fill="#667085" font-size="11" font-weight="400" text-anchor="end" font-family="Inter, ui-sans-serif, system-ui, sans-serif">10^4</text>
<text x="203.5" y="136.0" fill="#182230" font-size="13" font-weight="600" text-anchor="middle" font-family="Inter, ui-sans-serif, system-ui, sans-serif">Jordan quintic</text>
<line x1="85.00" y1="555.00" x2="322.00" y2="555.00" stroke="#182230" stroke-width="1"/>
<line x1="85.00" y1="555.00" x2="85.00" y2="560.00" stroke="#182230" stroke-width="1"/>
<text x="85.0" y="577.0" fill="#667085" font-size="11" font-weight="400" text-anchor="middle" font-family="Inter, ui-sans-serif, system-ui, sans-serif">1</text>
<line x1="144.25" y1="555.00" x2="144.25" y2="560.00" stroke="#182230" stroke-width="1"/>
<text x="144.2" y="577.0" fill="#667085" font-size="11" font-weight="400" text-anchor="middle" font-family="Inter, ui-sans-serif, system-ui, sans-serif">2</text>
<line x1="203.50" y1="555.00" x2="203.50" y2="560.00" stroke="#182230" stroke-width="1"/>
<text x="203.5" y="577.0" fill="#667085" font-size="11" font-weight="400" text-anchor="middle" font-family="Inter, ui-sans-serif, system-ui, sans-serif">3</text>
<line x1="262.75" y1="555.00" x2="262.75" y2="560.00" stroke="#182230" stroke-width="1"/>
<text x="262.8" y="577.0" fill="#667085" font-size="11" font-weight="400" text-anchor="middle" font-family="Inter, ui-sans-serif, system-ui, sans-serif">4</text>
<line x1="322.00" y1="555.00" x2="322.00" y2="560.00" stroke="#182230" stroke-width="1"/>
<text x="322.0" y="577.0" fill="#667085" font-size="11" font-weight="400" text-anchor="middle" font-family="Inter, ui-sans-serif, system-ui, sans-serif">5</text>
<polyline points="85.00,377.30 144.25,348.09 203.50,316.19 262.75,285.06 322.00,254.11" fill="none" stroke="#2F6BFF" stroke-width="2" stroke-linejoin="round"/>
<circle cx="85.00" cy="377.30" r="4.0" fill="#2F6BFF" stroke="#2F6BFF" stroke-width="1.8"/>
<circle cx="144.25" cy="348.09" r="4.0" fill="#2F6BFF" stroke="#2F6BFF" stroke-width="1.8"/>
<circle cx="203.50" cy="316.19" r="4.0" fill="#2F6BFF" stroke="#2F6BFF" stroke-width="1.8"/>
<circle cx="262.75" cy="285.06" r="4.0" fill="#2F6BFF" stroke="#2F6BFF" stroke-width="1.8"/>
<circle cx="322.00" cy="254.11" r="4.0" fill="#2F6BFF" stroke="#2F6BFF" stroke-width="1.8"/>
<polyline points="85.00,369.52 144.25,346.55 203.50,316.08 262.75,285.05 322.00,254.11" fill="none" stroke="#E46C2A" stroke-width="2" stroke-linejoin="round"/>
<circle cx="85.00" cy="369.52" r="4.0" fill="#FFFFFF" stroke="#E46C2A" stroke-width="1.8"/>
<circle cx="144.25" cy="346.55" r="4.0" fill="#FFFFFF" stroke="#E46C2A" stroke-width="1.8"/>
<circle cx="203.50" cy="316.08" r="4.0" fill="#FFFFFF" stroke="#E46C2A" stroke-width="1.8"/>
<circle cx="262.75" cy="285.05" r="4.0" fill="#FFFFFF" stroke="#E46C2A" stroke-width="1.8"/>
<circle cx="322.00" cy="254.11" r="4.0" fill="#FFFFFF" stroke="#E46C2A" stroke-width="1.8"/>
<polyline points="144.25,418.04 203.50,411.54 262.75,400.50 322.00,404.08" fill="none" stroke="#B58105" stroke-width="2" stroke-linejoin="round" stroke-dasharray="5 4"/>
<circle cx="144.25" cy="418.04" r="4.0" fill="#B58105" stroke="#B58105" stroke-width="1.8"/>
<circle cx="203.50" cy="411.54" r="4.0" fill="#B58105" stroke="#B58105" stroke-width="1.8"/>
<circle cx="262.75" cy="400.50" r="4.0" fill="#B58105" stroke="#B58105" stroke-width="1.8"/>
<circle cx="322.00" cy="404.08" r="4.0" fill="#B58105" stroke="#B58105" stroke-width="1.8"/>
<text x="460.5" y="136.0" fill="#182230" font-size="13" font-weight="600" text-anchor="middle" font-family="Inter, ui-sans-serif, system-ui, sans-serif">Classical NS</text>
<line x1="342.00" y1="555.00" x2="579.00" y2="555.00" stroke="#182230" stroke-width="1"/>
<line x1="342.00" y1="555.00" x2="342.00" y2="560.00" stroke="#182230" stroke-width="1"/>
<text x="342.0" y="577.0" fill="#667085" font-size="11" font-weight="400" text-anchor="middle" font-family="Inter, ui-sans-serif, system-ui, sans-serif">1</text>
<line x1="401.25" y1="555.00" x2="401.25" y2="560.00" stroke="#182230" stroke-width="1"/>
<text x="401.2" y="577.0" fill="#667085" font-size="11" font-weight="400" text-anchor="middle" font-family="Inter, ui-sans-serif, system-ui, sans-serif">2</text>
<line x1="460.50" y1="555.00" x2="460.50" y2="560.00" stroke="#182230" stroke-width="1"/>
<text x="460.5" y="577.0" fill="#667085" font-size="11" font-weight="400" text-anchor="middle" font-family="Inter, ui-sans-serif, system-ui, sans-serif">3</text>
<line x1="519.75" y1="555.00" x2="519.75" y2="560.00" stroke="#182230" stroke-width="1"/>
<text x="519.8" y="577.0" fill="#667085" font-size="11" font-weight="400" text-anchor="middle" font-family="Inter, ui-sans-serif, system-ui, sans-serif">4</text>
<line x1="579.00" y1="555.00" x2="579.00" y2="560.00" stroke="#182230" stroke-width="1"/>
<text x="579.0" y="577.0" fill="#667085" font-size="11" font-weight="400" text-anchor="middle" font-family="Inter, ui-sans-serif, system-ui, sans-serif">5</text>
<polyline points="342.00,468.51 401.25,456.58 460.50,465.97 519.75,476.19 579.00,486.39" fill="none" stroke="#2F6BFF" stroke-width="2" stroke-linejoin="round"/>
<circle cx="342.00" cy="468.51" r="4.0" fill="#2F6BFF" stroke="#2F6BFF" stroke-width="1.8"/>
<circle cx="401.25" cy="456.58" r="4.0" fill="#2F6BFF" stroke="#2F6BFF" stroke-width="1.8"/>
<circle cx="460.50" cy="465.97" r="4.0" fill="#2F6BFF" stroke="#2F6BFF" stroke-width="1.8"/>
<circle cx="519.75" cy="476.19" r="4.0" fill="#2F6BFF" stroke="#2F6BFF" stroke-width="1.8"/>
<circle cx="579.00" cy="486.39" r="4.0" fill="#2F6BFF" stroke="#2F6BFF" stroke-width="1.8"/>

<circle cx="342.00" cy="555.00" r="3.5" fill="#FFFFFF" stroke="#E46C2A" stroke-width="1.8"/>
<circle cx="401.25" cy="555.00" r="3.5" fill="#FFFFFF" stroke="#E46C2A" stroke-width="1.8"/>
<circle cx="460.50" cy="555.00" r="3.5" fill="#FFFFFF" stroke="#E46C2A" stroke-width="1.8"/>
<circle cx="519.75" cy="555.00" r="3.5" fill="#FFFFFF" stroke="#E46C2A" stroke-width="1.8"/>
<circle cx="579.00" cy="555.00" r="3.5" fill="#FFFFFF" stroke="#E46C2A" stroke-width="1.8"/>
<polyline points="342.00,468.51 401.25,456.58 460.50,465.97 519.75,476.19 579.00,486.39" fill="none" stroke="#B58105" stroke-width="2" stroke-linejoin="round" stroke-dasharray="5 4"/>
<circle cx="342.00" cy="468.51" r="4.0" fill="#B58105" stroke="#B58105" stroke-width="1.8"/>
<circle cx="401.25" cy="456.58" r="4.0" fill="#B58105" stroke="#B58105" stroke-width="1.8"/>
<circle cx="460.50" cy="465.97" r="4.0" fill="#B58105" stroke="#B58105" stroke-width="1.8"/>
<circle cx="519.75" cy="476.19" r="4.0" fill="#B58105" stroke="#B58105" stroke-width="1.8"/>
<circle cx="579.00" cy="486.39" r="4.0" fill="#B58105" stroke="#B58105" stroke-width="1.8"/>
<text x="717.5" y="136.0" fill="#182230" font-size="13" font-weight="600" text-anchor="middle" font-family="Inter, ui-sans-serif, system-ui, sans-serif">Taylor NS5</text>
<line x1="599.00" y1="555.00" x2="836.00" y2="555.00" stroke="#182230" stroke-width="1"/>
<line x1="599.00" y1="555.00" x2="599.00" y2="560.00" stroke="#182230" stroke-width="1"/>
<text x="599.0" y="577.0" fill="#667085" font-size="11" font-weight="400" text-anchor="middle" font-family="Inter, ui-sans-serif, system-ui, sans-serif">1</text>
<line x1="658.25" y1="555.00" x2="658.25" y2="560.00" stroke="#182230" stroke-width="1"/>
<text x="658.2" y="577.0" fill="#667085" font-size="11" font-weight="400" text-anchor="middle" font-family="Inter, ui-sans-serif, system-ui, sans-serif">2</text>
<line x1="717.50" y1="555.00" x2="717.50" y2="560.00" stroke="#182230" stroke-width="1"/>
<text x="717.5" y="577.0" fill="#667085" font-size="11" font-weight="400" text-anchor="middle" font-family="Inter, ui-sans-serif, system-ui, sans-serif">3</text>
<line x1="776.75" y1="555.00" x2="776.75" y2="560.00" stroke="#182230" stroke-width="1"/>
<text x="776.8" y="577.0" fill="#667085" font-size="11" font-weight="400" text-anchor="middle" font-family="Inter, ui-sans-serif, system-ui, sans-serif">4</text>
<line x1="836.00" y1="555.00" x2="836.00" y2="560.00" stroke="#182230" stroke-width="1"/>
<text x="836.0" y="577.0" fill="#667085" font-size="11" font-weight="400" text-anchor="middle" font-family="Inter, ui-sans-serif, system-ui, sans-serif">5</text>
<polyline points="599.00,456.96 658.25,466.96 717.50,482.79 776.75,498.59 836.00,514.39" fill="none" stroke="#2F6BFF" stroke-width="2" stroke-linejoin="round"/>
<circle cx="599.00" cy="456.96" r="4.0" fill="#2F6BFF" stroke="#2F6BFF" stroke-width="1.8"/>
<circle cx="658.25" cy="466.96" r="4.0" fill="#2F6BFF" stroke="#2F6BFF" stroke-width="1.8"/>
<circle cx="717.50" cy="482.79" r="4.0" fill="#2F6BFF" stroke="#2F6BFF" stroke-width="1.8"/>
<circle cx="776.75" cy="498.59" r="4.0" fill="#2F6BFF" stroke="#2F6BFF" stroke-width="1.8"/>
<circle cx="836.00" cy="514.39" r="4.0" fill="#2F6BFF" stroke="#2F6BFF" stroke-width="1.8"/>

<circle cx="599.00" cy="555.00" r="3.5" fill="#FFFFFF" stroke="#E46C2A" stroke-width="1.8"/>
<circle cx="658.25" cy="555.00" r="3.5" fill="#FFFFFF" stroke="#E46C2A" stroke-width="1.8"/>
<circle cx="717.50" cy="555.00" r="3.5" fill="#FFFFFF" stroke="#E46C2A" stroke-width="1.8"/>
<circle cx="776.75" cy="555.00" r="3.5" fill="#FFFFFF" stroke="#E46C2A" stroke-width="1.8"/>
<circle cx="836.00" cy="555.00" r="3.5" fill="#FFFFFF" stroke="#E46C2A" stroke-width="1.8"/>
<polyline points="599.00,456.96 658.25,466.96 717.50,482.79 776.75,498.59 836.00,514.39" fill="none" stroke="#B58105" stroke-width="2" stroke-linejoin="round" stroke-dasharray="5 4"/>
<circle cx="599.00" cy="456.96" r="4.0" fill="#B58105" stroke="#B58105" stroke-width="1.8"/>
<circle cx="658.25" cy="466.96" r="4.0" fill="#B58105" stroke="#B58105" stroke-width="1.8"/>
<circle cx="717.50" cy="482.79" r="4.0" fill="#B58105" stroke="#B58105" stroke-width="1.8"/>
<circle cx="776.75" cy="498.59" r="4.0" fill="#B58105" stroke="#B58105" stroke-width="1.8"/>
<circle cx="836.00" cy="514.39" r="4.0" fill="#B58105" stroke="#B58105" stroke-width="1.8"/>
<text x="717.5" y="626.0" fill="#182230" font-size="13" font-weight="550" text-anchor="middle" font-family="Inter, ui-sans-serif, system-ui, sans-serif">Polynomial stage</text>
<text x="974.5" y="136.0" fill="#182230" font-size="13" font-weight="600" text-anchor="middle" font-family="Inter, ui-sans-serif, system-ui, sans-serif">Polar Express 71cc</text>
<line x1="856.00" y1="555.00" x2="1093.00" y2="555.00" stroke="#182230" stroke-width="1"/>
<line x1="856.00" y1="555.00" x2="856.00" y2="560.00" stroke="#182230" stroke-width="1"/>
<text x="856.0" y="577.0" fill="#667085" font-size="11" font-weight="400" text-anchor="middle" font-family="Inter, ui-sans-serif, system-ui, sans-serif">1</text>
<line x1="915.25" y1="555.00" x2="915.25" y2="560.00" stroke="#182230" stroke-width="1"/>
<text x="915.2" y="577.0" fill="#667085" font-size="11" font-weight="400" text-anchor="middle" font-family="Inter, ui-sans-serif, system-ui, sans-serif">2</text>
<line x1="974.50" y1="555.00" x2="974.50" y2="560.00" stroke="#182230" stroke-width="1"/>
<text x="974.5" y="577.0" fill="#667085" font-size="11" font-weight="400" text-anchor="middle" font-family="Inter, ui-sans-serif, system-ui, sans-serif">3</text>
<line x1="1033.75" y1="555.00" x2="1033.75" y2="560.00" stroke="#182230" stroke-width="1"/>
<text x="1033.8" y="577.0" fill="#667085" font-size="11" font-weight="400" text-anchor="middle" font-family="Inter, ui-sans-serif, system-ui, sans-serif">4</text>
<line x1="1093.00" y1="555.00" x2="1093.00" y2="560.00" stroke="#182230" stroke-width="1"/>
<text x="1093.0" y="577.0" fill="#667085" font-size="11" font-weight="400" text-anchor="middle" font-family="Inter, ui-sans-serif, system-ui, sans-serif">5</text>
<polyline points="856.00,337.92 915.25,305.34 974.50,272.49 1033.75,246.62 1093.00,246.12" fill="none" stroke="#2F6BFF" stroke-width="2" stroke-linejoin="round"/>
<circle cx="856.00" cy="337.92" r="4.0" fill="#2F6BFF" stroke="#2F6BFF" stroke-width="1.8"/>
<circle cx="915.25" cy="305.34" r="4.0" fill="#2F6BFF" stroke="#2F6BFF" stroke-width="1.8"/>
<circle cx="974.50" cy="272.49" r="4.0" fill="#2F6BFF" stroke="#2F6BFF" stroke-width="1.8"/>
<circle cx="1033.75" cy="246.62" r="4.0" fill="#2F6BFF" stroke="#2F6BFF" stroke-width="1.8"/>
<circle cx="1093.00" cy="246.12" r="4.0" fill="#2F6BFF" stroke="#2F6BFF" stroke-width="1.8"/>
<polyline points="856.00,335.46 915.25,280.48 974.50,260.18 1033.75,237.60 1093.00,246.12" fill="none" stroke="#E46C2A" stroke-width="2" stroke-linejoin="round"/>
<circle cx="856.00" cy="335.46" r="4.0" fill="#FFFFFF" stroke="#E46C2A" stroke-width="1.8"/>
<circle cx="915.25" cy="280.48" r="4.0" fill="#FFFFFF" stroke="#E46C2A" stroke-width="1.8"/>
<circle cx="974.50" cy="260.18" r="4.0" fill="#FFFFFF" stroke="#E46C2A" stroke-width="1.8"/>
<circle cx="1033.75" cy="237.60" r="4.0" fill="#FFFFFF" stroke="#E46C2A" stroke-width="1.8"/>
<circle cx="1093.00" cy="246.12" r="4.0" fill="#FFFFFF" stroke="#E46C2A" stroke-width="1.8"/>
<polyline points="856.00,419.86 915.25,370.93 974.50,316.91 1033.75,308.03 1093.00,315.91" fill="none" stroke="#B58105" stroke-width="2" stroke-linejoin="round" stroke-dasharray="5 4"/>
<circle cx="856.00" cy="419.86" r="4.0" fill="#B58105" stroke="#B58105" stroke-width="1.8"/>
<circle cx="915.25" cy="370.93" r="4.0" fill="#B58105" stroke="#B58105" stroke-width="1.8"/>
<circle cx="974.50" cy="316.91" r="4.0" fill="#B58105" stroke="#B58105" stroke-width="1.8"/>
<circle cx="1033.75" cy="308.03" r="4.0" fill="#B58105" stroke="#B58105" stroke-width="1.8"/>
<circle cx="1093.00" cy="315.91" r="4.0" fill="#B58105" stroke="#B58105" stroke-width="1.8"/>
<text x="1231.5" y="136.0" fill="#182230" font-size="13" font-weight="600" text-anchor="middle" font-family="Inter, ui-sans-serif, system-ui, sans-serif">CANS 5×4, δ=0.3</text>
<line x1="1113.00" y1="555.00" x2="1350.00" y2="555.00" stroke="#182230" stroke-width="1"/>
<line x1="1113.00" y1="555.00" x2="1113.00" y2="560.00" stroke="#182230" stroke-width="1"/>
<text x="1113.0" y="577.0" fill="#667085" font-size="11" font-weight="400" text-anchor="middle" font-family="Inter, ui-sans-serif, system-ui, sans-serif">1</text>
<line x1="1192.00" y1="555.00" x2="1192.00" y2="560.00" stroke="#182230" stroke-width="1"/>
<text x="1192.0" y="577.0" fill="#667085" font-size="11" font-weight="400" text-anchor="middle" font-family="Inter, ui-sans-serif, system-ui, sans-serif">2</text>
<line x1="1271.00" y1="555.00" x2="1271.00" y2="560.00" stroke="#182230" stroke-width="1"/>
<text x="1271.0" y="577.0" fill="#667085" font-size="11" font-weight="400" text-anchor="middle" font-family="Inter, ui-sans-serif, system-ui, sans-serif">3</text>
<line x1="1350.00" y1="555.00" x2="1350.00" y2="560.00" stroke="#182230" stroke-width="1"/>
<text x="1350.0" y="577.0" fill="#667085" font-size="11" font-weight="400" text-anchor="middle" font-family="Inter, ui-sans-serif, system-ui, sans-serif">4</text>
<polyline points="1113.00,337.02 1192.00,305.42 1271.00,273.82 1350.00,259.06" fill="none" stroke="#2F6BFF" stroke-width="2" stroke-linejoin="round"/>
<circle cx="1113.00" cy="337.02" r="4.0" fill="#2F6BFF" stroke="#2F6BFF" stroke-width="1.8"/>
<circle cx="1192.00" cy="305.42" r="4.0" fill="#2F6BFF" stroke="#2F6BFF" stroke-width="1.8"/>
<circle cx="1271.00" cy="273.82" r="4.0" fill="#2F6BFF" stroke="#2F6BFF" stroke-width="1.8"/>
<circle cx="1350.00" cy="259.06" r="4.0" fill="#2F6BFF" stroke="#2F6BFF" stroke-width="1.8"/>
<polyline points="1113.00,333.65 1192.00,277.24 1271.00,219.40 1350.00,179.06" fill="none" stroke="#E46C2A" stroke-width="2" stroke-linejoin="round"/>
<circle cx="1113.00" cy="333.65" r="4.0" fill="#FFFFFF" stroke="#E46C2A" stroke-width="1.8"/>
<circle cx="1192.00" cy="277.24" r="4.0" fill="#FFFFFF" stroke="#E46C2A" stroke-width="1.8"/>
<circle cx="1271.00" cy="219.40" r="4.0" fill="#FFFFFF" stroke="#E46C2A" stroke-width="1.8"/>
<circle cx="1350.00" cy="179.06" r="4.0" fill="#FFFFFF" stroke="#E46C2A" stroke-width="1.8"/>
<polyline points="1113.00,405.41 1192.00,366.13 1271.00,315.87 1350.00,312.10" fill="none" stroke="#B58105" stroke-width="2" stroke-linejoin="round" stroke-dasharray="5 4"/>
<circle cx="1113.00" cy="405.41" r="4.0" fill="#B58105" stroke="#B58105" stroke-width="1.8"/>
<circle cx="1192.00" cy="366.13" r="4.0" fill="#B58105" stroke="#B58105" stroke-width="1.8"/>
<circle cx="1271.00" cy="315.87" r="4.0" fill="#B58105" stroke="#B58105" stroke-width="1.8"/>
<circle cx="1350.00" cy="312.10" r="4.0" fill="#B58105" stroke="#B58105" stroke-width="1.8"/>
<text x="18.0" y="352.5" fill="#182230" font-size="13" font-weight="550" text-anchor="middle" font-family="Inter, ui-sans-serif, system-ui, sans-serif" transform="rotate(-90.0 18.0 352.5)">Deficit (log scale)</text>
<text x="85.0" y="600.0" fill="#667085" font-size="11" font-weight="400" text-anchor="start" font-family="Inter, ui-sans-serif, system-ui, sans-serif">Open markers on the floor denote an observed value of zero; missing clean-subset markers mean no sampled fixed-scale-monotone point.</text>
</svg>
